<?xml version="1.0" encoding="utf-8"?>
<!-- Generator: Adobe Illustrator 23.0.1, SVG Export Plug-In . SVG Version: 6.00 Build 0)  -->
<svg version="1.1" id="Layer_1" xmlns="http://www.w3.org/2000/svg" xmlns:xlink="http://www.w3.org/1999/xlink" x="0px" y="0px"
	 viewBox="0 0 150 80" style="enable-background:new 0 0 150 80;" xml:space="preserve">
<style type="text/css">
	.st0{clip-path:url(#SVGID_3_);}
	.st1{clip-path:url(#SVGID_6_);fill:#BA4F99;}
	.st2{clip-path:url(#SVGID_6_);fill:#000080;}
	.st3{clip-path:url(#SVGID_8_);fill:url(#SVGID_9_);}
	.st4{clip-path:url(#SVGID_11_);fill:url(#SVGID_12_);}
	.st5{clip-path:url(#SVGID_14_);fill:url(#SVGID_15_);}
</style>
<g>
	<defs>
		<line id="SVGID_1_" x1="116" y1="88" x2="28" y2="88"/>
	</defs>
	<defs>
		<line id="SVGID_2_" x1="28" y1="0" x2="116" y2="0"/>
	</defs>
	<clipPath id="SVGID_3_">
		<use xlink:href="#SVGID_1_"  style="overflow:visible;"/>
	</clipPath>
	<clipPath id="SVGID_4_" class="st0">
		<use xlink:href="#SVGID_2_"  style="overflow:visible;"/>
	</clipPath>
</g>
<g>
	<defs>
		<rect id="SVGID_5_" x="20.7" y="-8.3" width="104.6" height="104.6"/>
	</defs>
	<clipPath id="SVGID_6_">
		<use xlink:href="#SVGID_5_"  style="overflow:visible;"/>
	</clipPath>
	<path class="st1" d="M71.9,13.1c0,0,6.5-6.2,19.5,3.1c0,0-3.5-9.6-14.5-11.8c-11-2.1-18.2,5.6-18.2,5.6s-3.4,2.9-5.1,9.2
		c-0.4,1.5,1.3,1.5,2,0.5c0.5-0.8,1-1.6,1.5-2.4c1.6-2.4,3.5-4.8,6-6.4c1.3-0.8,2.7-1.5,4.3-1.5c0.3,0,0.9,0,1.2,0.3
		c0,0,1.6,0.9-3.6,3.8c0,0-3.9,2.3-1.9,3.2C64.9,17.8,71.9,13.1,71.9,13.1"/>
	<path class="st1" d="M75.9,19.1c0,1.6-1.3,2.9-2.9,2.9c-1.6,0-2.9-1.3-2.9-2.9c0-1.6,1.3-2.9,2.9-2.9
		C74.6,16.2,75.9,17.5,75.9,19.1"/>
	<path class="st1" d="M60.8,20.4c0,0,3.9,0.3,6.5,5.8c2.6,5.5,5.2,10.7,8.4,5.2c0,0-2.1,0.5-3.4-2.4C71,26.1,67.7,15.4,60.8,20.4"/>
	<path class="st2" d="M85,20.4c0,0-3.9,0.3-6.5,5.8c-2.6,5.5-5.2,10.8-8.5,5.3c0,0,2.1,0.3,3.4-2.6C74.8,26.1,78.1,15.4,85,20.4"/>
	<path class="st2" d="M73.9,34.6c0,0-6.5,6.2-19.5-3.1c0,0,3.5,9.6,14.5,11.8c11,2.1,18.2-5.6,18.2-5.6s3.4-2.9,5.1-9.2
		c0.4-1.5-1.3-1.5-2-0.5c-0.5,0.8-1,1.6-1.5,2.4c-1.6,2.4-3.5,4.8-6,6.4c-1.3,0.8-2.7,1.5-4.3,1.5c-0.3,0-0.9,0-1.2-0.3
		c0,0-1.6-0.9,3.6-3.8c0,0,3.9-2.3,1.9-3.2C80.8,29.9,73.9,34.6,73.9,34.6"/>
	<path class="st2" d="M46.5,78.3c-1.8,0-3.5-0.4-5.1-1.3c-1.6-0.9-2.7-2.1-3.3-3.5c-0.2-0.4-0.2-0.7-0.2-1c0-0.6,0.2-1.1,0.6-1.6
		c0.4-0.4,0.8-0.6,1.4-0.8c0.2,0,0.4-0.1,0.6-0.1c0.5,0,1,0.2,1.5,0.5c0.5,0.3,0.8,0.7,1,1.2c0.2,0.4,0.6,0.7,1.2,1
		c0.7,0.4,1.5,0.5,2.3,0.5c1,0,1.8-0.2,2.4-0.6c0.5-0.3,0.7-0.7,0.7-1.2c0-0.6-0.2-1-0.7-1.5c-0.5-0.5-1.4-0.8-2.6-0.9
		c-2.3-0.2-4.2-0.9-5.6-2.1c-1.5-1.3-2.2-2.9-2.2-4.8c0-1.4,0.4-2.6,1.2-3.6c0.8-1,1.8-1.7,3.1-2.2c1.2-0.5,2.6-0.7,4-0.7
		c1.7,0,3.1,0.4,4.3,1.1c1.2,0.7,2.2,1.7,2.9,2.9c0.3,0.5,0.5,1.1,0.5,1.6c0,0.8-0.4,1.5-1.1,2l0,0c-0.4,0.3-0.9,0.4-1.4,0.4
		c-0.5,0-0.9-0.1-1.4-0.4c-0.4-0.2-0.8-0.6-1-1c-0.3-0.5-0.7-0.9-1.2-1.2c-0.5-0.3-1.1-0.4-1.9-0.4c-1,0-1.8,0.2-2.4,0.5
		c-0.4,0.2-0.5,0.5-0.5,1c0,0.5,0.2,0.8,0.6,1.1c0.3,0.2,1,0.6,3,0.8c2.3,0.2,4.1,1,5.4,2.2l0,0c1.4,1.3,2.1,2.9,2.1,5
		c0,1.5-0.4,2.8-1.2,3.9c-0.8,1.1-1.9,1.8-3.2,2.4C49.2,78.1,47.9,78.3,46.5,78.3"/>
	<path class="st2" d="M83,78.2c-1.5,0-2.9-0.4-4.2-1.1c-1.3-0.7-2.3-1.7-3-3c-0.7-1.3-1.1-2.7-1.1-4.2c0-1.5,0.3-2.9,1-4.2
		c0.7-1.3,1.6-2.3,2.8-3c1.2-0.7,2.5-1.1,4-1.1c1.2,0,2.3,0.2,3.3,0.7c0.1,0,0.1,0.1,0.2,0.1v-4c0-0.7,0.3-1.4,0.8-1.9
		c0.5-0.5,1.1-0.7,1.8-0.7c0.7,0,1.4,0.3,1.9,0.7c0.5,0.5,0.7,1.1,0.7,1.9v11.4c0,1.5-0.4,2.9-1.1,4.2c-0.7,1.3-1.7,2.3-3,3
		C85.9,77.8,84.5,78.2,83,78.2 M83,66.6c-0.6,0-1.1,0.1-1.6,0.4c-0.5,0.3-0.8,0.7-1.1,1.2c-0.3,0.5-0.4,1.1-0.4,1.7
		c0,0.7,0.1,1.2,0.4,1.8c0.3,0.5,0.6,0.9,1.1,1.2c0.5,0.3,1,0.4,1.6,0.4s1.1-0.1,1.6-0.4c0.5-0.3,0.8-0.7,1.1-1.2
		c0.3-0.5,0.4-1.1,0.4-1.8c0-0.7-0.1-1.2-0.4-1.7c-0.3-0.5-0.6-0.9-1.1-1.2C84.1,66.7,83.6,66.6,83,66.6"/>
	<path class="st2" d="M105.1,78.3c-0.8,0-1.5-0.3-1.9-1l-3.6-4.5v2.7c0,0.7-0.3,1.4-0.7,1.8c-0.5,0.5-1.1,0.7-1.8,0.7
		c-0.7,0-1.4-0.3-1.8-0.7c-0.5-0.5-0.7-1.1-0.7-1.8v-17c0-0.7,0.3-1.4,0.7-1.8c0.5-0.5,1.1-0.7,1.8-0.7c0.7,0,1.4,0.3,1.8,0.7
		c0.5,0.5,0.7,1.1,0.7,1.8v7.2l3.8-3.4c0.5-0.4,1-0.7,1.7-0.7c0.7,0,1.4,0.3,1.8,0.8c0.4,0.5,0.7,1,0.7,1.7c0,0.7-0.3,1.4-0.9,1.9
		l-3.6,3.2l4,4.9c0.4,0.4,0.6,1,0.6,1.6c0,0.8-0.3,1.4-0.9,1.9l0,0C106.2,78.1,105.7,78.3,105.1,78.3"/>
	<path class="st2" d="M71.9,65.7c-0.7-1.3-1.7-2.3-3-3l0,0c-1.2-0.7-2.6-1.1-4.2-1.1c-1.5,0-2.9,0.4-4.2,1.1c-1.3,0.7-2.3,1.7-3,3
		c-0.7,1.3-1.1,2.7-1.1,4.2c0,1.5,0.3,2.9,1,4.2c0.7,1.3,1.6,2.3,2.8,3c1.2,0.7,2.5,1.1,4,1.1c1.2,0,2.3-0.2,3.3-0.7
		c0.2-0.1,0.5-0.2,0.7-0.4c0.1,0.1,0.2,0.2,0.3,0.3c0.5,0.5,1.1,0.8,1.9,0.8c0.7,0,1.4-0.3,1.9-0.8c0.5-0.5,0.8-1.1,0.8-1.9v-5.6
		C73,68.4,72.6,67,71.9,65.7 M67.6,69.8C67.6,69.8,67.6,69.8,67.6,69.8c-0.1,0.2-0.2,0.4-0.3,0.6l-0.8,0.9c-0.3,0.3-0.5,0.6-0.8,0.9
		c-0.2,0.2-0.4,0.5-0.6,0.7c-0.1,0.1-0.2,0.2-0.3,0.3c0,0,0,0,0,0c-0.1,0-0.1-0.1-0.1-0.1c0,0-0.1-0.1-0.1-0.1
		c-0.2-0.2-0.4-0.5-0.7-0.7l-0.8-0.8c-0.2-0.2-0.5-0.5-0.7-0.7c-0.1-0.1-0.2-0.2-0.2-0.2c-0.1-0.1-0.2-0.2-0.2-0.4
		c-0.2-0.4-0.2-0.9,0-1.3c0.1-0.2,0.2-0.4,0.4-0.5c0.2-0.2,0.4-0.3,0.6-0.3c0.6-0.2,1.3,0,1.7,0.4c0.4-0.4,1-0.7,1.7-0.5
		c0.2,0,0.3,0.1,0.5,0.2c0.4,0.3,0.7,0.7,0.7,1.1C67.7,69.4,67.7,69.6,67.6,69.8"/>
	<path class="st2" d="M123.4,65.7L123.4,65.7c-0.7-1.3-1.7-2.3-3-3c-1.2-0.7-2.6-1.1-4.2-1.1c-1.5,0-2.9,0.4-4.2,1.1
		c-1.3,0.7-2.3,1.7-3,3c-0.7,1.3-1.1,2.7-1.1,4.2c0,1.5,0.3,2.9,1,4.2c0.7,1.3,1.6,2.3,2.8,3c1.2,0.7,2.5,1.1,4,1.1
		c1.2,0,2.3-0.2,3.3-0.7c0.2-0.1,0.5-0.2,0.7-0.4c0.1,0.1,0.2,0.2,0.3,0.3c0.5,0.5,1.1,0.8,1.9,0.8c0.7,0,1.4-0.3,1.9-0.8
		c0.5-0.5,0.8-1.1,0.8-1.9v-5.6C124.4,68.4,124.1,67,123.4,65.7 M119.5,69.8C119.5,69.8,119.5,69.8,119.5,69.8
		c-0.1,0.2-0.2,0.4-0.3,0.6l-0.8,0.9c-0.3,0.3-0.5,0.6-0.8,0.9c-0.2,0.2-0.4,0.5-0.6,0.7c-0.1,0.1-0.2,0.2-0.3,0.3c0,0,0,0,0,0
		c-0.1,0-0.1-0.1-0.1-0.1c0,0-0.1-0.1-0.1-0.1c-0.2-0.2-0.4-0.5-0.7-0.7c-0.3-0.3-0.5-0.6-0.8-0.8c-0.2-0.2-0.5-0.5-0.7-0.7
		c-0.1-0.1-0.2-0.2-0.2-0.2c-0.1-0.1-0.2-0.2-0.2-0.4c-0.2-0.4-0.2-0.9,0-1.3c0.1-0.2,0.2-0.4,0.4-0.5c0.2-0.2,0.4-0.2,0.6-0.3
		c0.6-0.2,1.3,0,1.7,0.4c0.4-0.4,1-0.7,1.7-0.5c0.2,0,0.3,0.1,0.5,0.2c0.4,0.3,0.7,0.7,0.7,1.1C119.6,69.3,119.6,69.6,119.5,69.8"/>
</g>
<g>
	<defs>
		<path id="SVGID_7_" d="M33.6,65.8c0,0,0.3,1.2-1.1,1.9c-1.4,0.7-7.5,0.6-7.5,0.6c-1.9,1.2-0.4,2.9-0.4,2.9
			c0.4,0.1,0.8,0.2,1.2,0.3c1.9,0.3,3.9,0.2,5.8,0c1.9-0.2,3.3-1.7,3.5-3.5c0.2-2.2-1.7-4-2.2-4.5C33.7,64.2,33.6,65.8,33.6,65.8
			 M32.9,63.5c0,0-0.1-0.1-0.1-0.1C32.8,63.3,32.8,63.4,32.9,63.5"/>
	</defs>
	<clipPath id="SVGID_8_">
		<use xlink:href="#SVGID_7_"  style="overflow:visible;"/>
	</clipPath>
	
		<linearGradient id="SVGID_9_" gradientUnits="userSpaceOnUse" x1="-120.9885" y1="242.4527" x2="-120.7396" y2="242.4527" gradientTransform="matrix(44.1685 0 0 -44.1685 5368.0186 10776.3418)">
		<stop  offset="0" style="stop-color:#9E2775"/>
		<stop  offset="1" style="stop-color:#BA4F99"/>
	</linearGradient>
	<rect x="23.2" y="63.3" class="st3" width="12.1" height="8.5"/>
</g>
<g>
	<defs>
		<path id="SVGID_10_" d="M26.4,62c-3.6,0.9-5,4.9-5,4.9c-0.7,1.6-0.7,3.6-0.3,5.3c0.4,1.7,1.5,3.5,3.1,4.4c1.2,0.7,2.4,0.9,3.8,1
			c0.9,0.1,1.9,0,2.8-0.3c0.9-0.3,2.1-0.9,2.6-1.6c0.4-0.7,0.5-1.5,0.4-2.3c-2.5,0.7-5.3,0.9-7.7-0.3c-1.8-0.9-3.2-2.6-3.6-4.5
			c0,0,6.7-6.7,4.5-6.7C26.8,61.9,26.6,61.9,26.4,62"/>
	</defs>
	<clipPath id="SVGID_11_">
		<use xlink:href="#SVGID_10_"  style="overflow:visible;"/>
	</clipPath>
	
		<linearGradient id="SVGID_12_" gradientUnits="userSpaceOnUse" x1="-121.2537" y1="242.3634" x2="-121.0048" y2="242.3634" gradientTransform="matrix(52.0203 0 0 -52.0203 6328.5234 12677.5615)">
		<stop  offset="0" style="stop-color:#9E2775"/>
		<stop  offset="1" style="stop-color:#BA4F99"/>
	</linearGradient>
	<rect x="20.7" y="61.9" class="st4" width="13.2" height="15.7"/>
</g>
<g>
	<defs>
		<path id="SVGID_13_" d="M25,62.6c0,0-3.3,1.9-2.6,5.8c0.8,4.2,4.3,5,4.3,5c-1.8-1.5-2.1-3.6-1.5-5.3c0.5-1.7,1.8-2.7,3.3-2.7
			c2.9,0.1,2.6,2.8,2.6,2.8c1.3,0,2.4-0.4,2.7-1.8c0.5-2.1-1.3-3.6-3.2-4.2c-0.7-0.2-1.5-0.3-2.2-0.3C27.2,61.8,26,62,25,62.6"/>
	</defs>
	<clipPath id="SVGID_14_">
		<use xlink:href="#SVGID_13_"  style="overflow:visible;"/>
	</clipPath>
	
		<linearGradient id="SVGID_15_" gradientUnits="userSpaceOnUse" x1="-129.7916" y1="238.5827" x2="-129.5427" y2="238.5827" gradientTransform="matrix(-20.3602 2.3778 2.3778 20.3602 -3178.8442 -4481.7759)">
		<stop  offset="0" style="stop-color:#9E2775"/>
		<stop  offset="1" style="stop-color:#BA4F99"/>
	</linearGradient>
	<polygon class="st5" points="35.6,73.2 21.9,74.8 20.4,61.9 34.1,60.3 	"/>
</g>
</svg>
